<svg width="58" height="12" viewBox="0 0 58 12" fill="none" xmlns="http://www.w3.org/2000/svg">
<path d="M51.2023 5.868C51.5623 6.156 51.8383 6.48 52.0303 6.84C52.2223 7.2 52.4023 7.632 52.5703 8.136C52.7383 8.576 52.8583 8.864 52.9303 9H50.0383C50.0143 8.944 49.9663 8.768 49.8943 8.472C49.8303 8.176 49.7663 7.94 49.7023 7.764C49.6383 7.58 49.5423 7.42 49.4143 7.284C49.2143 7.068 48.9903 6.928 48.7423 6.864C48.4943 6.8 48.1263 6.768 47.6383 6.768V9H45.0703C45.1103 8.088 45.1303 6.996 45.1303 5.724C45.1303 4.452 45.1103 3.36 45.0703 2.448H47.6383V4.8H47.6863C48.6383 3.848 49.3303 3.064 49.7623 2.448H52.9303L50.1223 5.244C50.5383 5.42 50.8983 5.628 51.2023 5.868Z" fill="black"/>
<path d="M44.1097 2.448C44.0697 3.608 44.0497 4.656 44.0497 5.592C44.0497 6.512 44.0697 7.56 44.1097 8.736H41.6497L41.7817 4.584L39.9457 8.736H36.5977C36.6457 7.68 36.6697 6.632 36.6697 5.592C36.6697 4.536 36.6457 3.488 36.5977 2.448H38.9617L38.8417 6.708L40.6777 2.448H44.1097Z" fill="black"/>
<path d="M36.1121 4.704C34.9121 4.672 34.0401 4.652 33.4961 4.644V9H30.9521V4.644C30.4161 4.652 29.5481 4.672 28.3481 4.704V2.448H36.1121V4.704Z" fill="black"/>
<path d="M25.2596 2.328C25.7796 2.328 26.2476 2.476 26.6636 2.772C27.0796 3.068 27.4036 3.472 27.6356 3.984C27.8676 4.488 27.9836 5.044 27.9836 5.652C27.9836 6.252 27.8676 6.82 27.6356 7.356C27.4036 7.884 27.0756 8.312 26.6516 8.64C26.2356 8.96 25.7596 9.12 25.2236 9.12C24.5996 9.12 24.0636 8.992 23.6156 8.736C23.1756 8.472 22.8476 8.068 22.6316 7.524C22.6316 7.98 22.6476 8.712 22.6796 9.72C22.7116 10.696 22.7276 11.384 22.7276 11.784H20.0156C20.0636 10.296 20.0876 8.74 20.0876 7.116C20.0876 5.492 20.0636 3.936 20.0156 2.448H22.3196L22.6676 3.948C22.8916 3.388 23.2276 2.98 23.6756 2.724C24.1236 2.46 24.6516 2.328 25.2596 2.328ZM23.9756 6.96C24.3356 6.96 24.6356 6.848 24.8756 6.624C25.1236 6.392 25.2476 6.092 25.2476 5.724C25.2476 5.316 25.1356 4.984 24.9116 4.728C24.6876 4.472 24.3836 4.344 23.9996 4.344C23.5596 4.344 23.2276 4.452 23.0036 4.668C22.7796 4.876 22.6676 5.228 22.6676 5.724C22.6676 6.004 22.7396 6.24 22.8836 6.432C23.0276 6.616 23.1996 6.752 23.3996 6.84C23.5996 6.92 23.7916 6.96 23.9756 6.96Z" fill="black"/>
<path d="M17.6683 6H13.7563C13.8203 6.352 13.9763 6.64 14.2243 6.864C14.4803 7.08 14.8403 7.188 15.3043 7.188C15.6403 7.188 15.9563 7.124 16.2523 6.996C16.5483 6.86 16.7843 6.672 16.9603 6.432C17.4963 6.696 18.2083 6.98 19.0963 7.284C18.8483 7.844 18.3963 8.292 17.7403 8.628C17.0923 8.956 16.2443 9.12 15.1963 9.12C13.8363 9.12 12.8283 8.808 12.1723 8.184C11.5243 7.552 11.2003 6.724 11.2003 5.7C11.2003 4.7 11.5243 3.888 12.1723 3.264C12.8203 2.64 13.8283 2.328 15.1963 2.328C16.0123 2.328 16.7203 2.464 17.3203 2.736C17.9203 3.008 18.3803 3.388 18.7003 3.876C19.0203 4.356 19.1803 4.908 19.1803 5.532C19.1803 5.74 19.1723 5.896 19.1563 6H17.6683ZM15.3643 4.14C14.9643 4.14 14.6363 4.216 14.3803 4.368C14.1243 4.52 13.9443 4.728 13.8403 4.992H16.6723C16.5763 4.736 16.4203 4.532 16.2043 4.38C15.9883 4.22 15.7083 4.14 15.3643 4.14Z" fill="black"/>
<path d="M5.28 9.12C3.472 9.12 2.14 8.736 1.284 7.968C0.428 7.2 0 6.104 0 4.68C0 3.248 0.428 2.116 1.284 1.284C2.14 0.452 3.472 0.0359993 5.28 0.0359993C7.808 0.0359993 9.5 0.903999 10.356 2.64C9.636 2.888 8.792 3.26 7.824 3.756C7.592 3.308 7.224 2.976 6.72 2.76C6.224 2.544 5.716 2.436 5.196 2.436C4.428 2.436 3.856 2.64 3.48 3.048C3.104 3.448 2.916 3.944 2.916 4.536C2.916 5.176 3.116 5.7 3.516 6.108C3.924 6.508 4.544 6.708 5.376 6.708C6.04 6.708 6.568 6.6 6.96 6.384C7.352 6.16 7.64 5.808 7.824 5.328C8.48 5.68 9.32 6.076 10.344 6.516C9.944 7.484 9.276 8.16 8.34 8.544C7.404 8.928 6.384 9.12 5.28 9.12Z" fill="black"/>
<path d="M56.97 0.287L57.453 1.127L56.795 1.414L57.453 1.701L56.97 2.541L56.389 2.114L56.473 2.828H55.5L55.584 2.114L55.003 2.541L54.52 1.701L55.178 1.414L54.52 1.127L55.003 0.287L55.584 0.714L55.5 0H56.473L56.389 0.714L56.97 0.287Z" fill="#4F46E5"/>
</svg>
